<svg width="32" height="32" viewBox="0 0 32 32" fill="none" xmlns="http://www.w3.org/2000/svg">
<path d="M28 15.9999C28 9.3725 22.6275 3.99992 16 3.99992C13.1666 3.99992 10.5627 4.98205 8.50981 6.62427L25.375 23.4895C27.0172 21.4366 28 18.8333 28 15.9999ZM4.00004 15.9999C4.00004 22.6273 9.37262 27.9999 16 27.9999C18.8334 27.9999 21.4367 27.0171 23.4896 25.3749L6.62439 8.50968C4.98217 10.5626 4.00004 13.1665 4.00004 15.9999ZM30.6667 15.9999C30.6667 19.9073 29.1382 23.4572 26.6472 26.0859C26.5861 26.2022 26.5073 26.3117 26.4095 26.4094C26.3116 26.5073 26.2018 26.586 26.0853 26.6471C23.4567 29.1378 19.9072 30.6666 16 30.6666C7.89986 30.6666 1.33337 24.1001 1.33337 15.9999C1.33337 12.0924 2.86173 8.54207 5.35291 5.91333C5.41392 5.79722 5.49291 5.68804 5.59054 5.59041C5.68824 5.49271 5.79725 5.41317 5.91345 5.35213C8.54216 2.86114 12.0927 1.33325 16 1.33325C24.1002 1.33325 30.6667 7.89974 30.6667 15.9999Z" fill="black"/>
</svg>
