<svg width="32" height="32" viewBox="0 0 32 32" fill="none" xmlns="http://www.w3.org/2000/svg">
<path d="M28 19.675C24.454 21.5631 20.5036 22.5925 16.4688 22.6666L16 22.6711C11.8028 22.6711 7.68329 21.6362 4.00004 19.675V23.9999C4.00004 24.7363 4.59699 25.3333 5.33337 25.3333H26.6667C27.4031 25.3333 28 24.7363 28 23.9999V19.675ZM16.0131 14.6666L16.1498 14.6737C16.8221 14.7421 17.3464 15.3096 17.3464 15.9999C17.3464 16.6902 16.8221 17.2578 16.1498 17.3261L16.0131 17.3333H16C15.2637 17.3333 14.6667 16.7363 14.6667 15.9999C14.6667 15.2635 15.2637 14.6666 16 14.6666H16.0131ZM28 10.6666C28 9.9302 27.4031 9.33325 26.6667 9.33325H5.33337C4.59699 9.33325 4.00004 9.93021 4.00004 10.6666V16.6015C7.60362 18.8232 11.7573 20.0045 16 20.0045L16.42 20.0006C20.5165 19.9254 24.5154 18.7499 28 16.6015V10.6666ZM20 5.33325C20 4.97963 19.8595 4.64059 19.6094 4.39054C19.3594 4.14049 19.0203 3.99992 18.6667 3.99992H13.3334C12.9798 3.99992 12.6407 4.14049 12.3907 4.39054C12.1406 4.64059 12 4.97963 12 5.33325V6.66658H20V5.33325ZM22.6667 6.66658H26.6667C28.8758 6.66658 30.6667 8.45745 30.6667 10.6666V23.9999C30.6667 26.2091 28.8758 27.9999 26.6667 27.9999H5.33337C3.12423 27.9999 1.33337 26.2091 1.33337 23.9999V10.6666C1.33337 8.45745 3.12424 6.66658 5.33337 6.66658H9.33337V5.33325C9.33337 4.27239 9.7551 3.25527 10.5052 2.50513C11.2554 1.75498 12.2725 1.33325 13.3334 1.33325H18.6667C19.7276 1.33325 20.7447 1.75498 21.4948 2.50513C22.245 3.25527 22.6667 4.27239 22.6667 5.33325V6.66658Z" fill="black"/>
</svg>
