<svg width="32" height="32" viewBox="0 0 32 32" fill="none" xmlns="http://www.w3.org/2000/svg">
<path fill-rule="evenodd" clip-rule="evenodd" d="M16 3.99992C9.37262 3.99992 4.00004 9.3725 4.00004 15.9999C4.00004 22.6273 9.37262 27.9999 16 27.9999C22.6275 27.9999 28 22.6273 28 15.9999C28 9.3725 22.6275 3.99992 16 3.99992ZM1.33337 15.9999C1.33337 7.89974 7.89986 1.33325 16 1.33325C24.1002 1.33325 30.6667 7.89974 30.6667 15.9999C30.6667 24.1001 24.1002 30.6666 16 30.6666C7.89986 30.6666 1.33337 24.1001 1.33337 15.9999ZM16.3442 10.699C15.7235 10.5925 15.0852 10.7092 14.5422 11.0283C13.9993 11.3474 13.5868 11.8483 13.3778 12.4424C13.1335 13.137 12.3722 13.5021 11.6776 13.2577C10.9829 13.0133 10.6179 12.2521 10.8623 11.5575C11.2802 10.3693 12.1052 9.36743 13.1911 8.72925C14.2769 8.09108 15.5536 7.8578 16.795 8.07073C18.0364 8.28366 19.1624 8.92906 19.9735 9.89262C20.7846 10.8562 21.2286 12.0757 21.2267 13.3352L19.8934 13.3333H21.2267C21.2267 13.3339 21.2267 13.3346 21.2267 13.3352C21.2257 15.3753 19.7132 16.7225 18.633 17.4427C18.0521 17.8299 17.4808 18.1146 17.0599 18.3017C16.8476 18.396 16.6688 18.4677 16.5399 18.5167C16.4754 18.5413 16.4231 18.5604 16.385 18.5739C16.3659 18.5807 16.3504 18.5861 16.3387 18.5901L16.3239 18.5952L16.3187 18.5969L16.3158 18.5979C16.3154 18.598 16.315 18.5982 15.8934 17.3333L15.4717 16.0683C15.4715 16.0684 15.4713 16.0685 15.471 16.0686L15.4916 16.0613C15.5121 16.054 15.5457 16.0419 15.5906 16.0248C15.6805 15.9905 15.8142 15.9371 15.9769 15.8648C16.306 15.7186 16.7346 15.5033 17.1538 15.2239C18.0732 14.6109 18.56 13.9588 18.56 13.3333L18.56 13.3313C18.561 12.7015 18.339 12.0917 17.9334 11.61C17.5279 11.1282 16.9649 10.8055 16.3442 10.699ZM15.4691 16.0692C14.7722 16.3031 14.3959 17.0572 14.6285 17.7549C14.8613 18.4535 15.6164 18.831 16.315 18.5982L15.8934 17.3333C15.4717 16.0683 15.4714 16.0685 15.471 16.0686L15.4691 16.0692C15.4692 16.0692 15.469 16.0693 15.4691 16.0692ZM14.6667 22.6666C14.6667 21.9302 15.2637 21.3333 16 21.3333H16.0134C16.7498 21.3333 17.3467 21.9302 17.3467 22.6666C17.3467 23.403 16.7498 23.9999 16.0134 23.9999H16C15.2637 23.9999 14.6667 23.403 14.6667 22.6666Z" fill="black"/>
</svg>
