<svg width="32" height="32" viewBox="0 0 32 32" fill="none" xmlns="http://www.w3.org/2000/svg">
<path fill-rule="evenodd" clip-rule="evenodd" d="M16 3.99992C9.37256 3.99992 3.99998 9.3725 3.99998 15.9999C3.99998 19.5623 5.55231 22.7622 8.01743 24.9599C8.104 24.036 8.50991 23.1665 9.17155 22.5048C9.9217 21.7547 10.9391 21.3333 12 21.3333H20C21.0608 21.3333 22.0783 21.7547 22.8284 22.5048C23.49 23.1665 23.896 24.036 23.9825 24.9599C26.4477 22.7622 28 19.5623 28 15.9999C28 9.3725 22.6274 3.99992 16 3.99992ZM21.3333 26.7526V25.3333C21.3333 24.9796 21.1928 24.6405 20.9428 24.3904C20.6927 24.1404 20.3536 23.9999 20 23.9999H12C11.6464 23.9999 11.3072 24.1404 11.0572 24.3904C10.8071 24.6405 10.6666 24.9796 10.6666 25.3333V26.7526C12.2733 27.551 14.0842 27.9999 16 27.9999C17.9158 27.9999 19.7267 27.551 21.3333 26.7526ZM1.33331 15.9999C1.33331 7.89974 7.8998 1.33325 16 1.33325C24.1002 1.33325 30.6666 7.89974 30.6666 15.9999C30.6666 24.1001 24.1002 30.6666 16 30.6666C7.8998 30.6666 1.33331 24.1001 1.33331 15.9999ZM16 10.6666C14.5272 10.6666 13.3333 11.8605 13.3333 13.3333C13.3333 14.806 14.5272 15.9999 16 15.9999C17.4727 15.9999 18.6666 14.806 18.6666 13.3333C18.6666 11.8605 17.4727 10.6666 16 10.6666ZM10.6666 13.3333C10.6666 10.3877 13.0545 7.99992 16 7.99992C18.9455 7.99992 21.3333 10.3877 21.3333 13.3333C21.3333 16.2788 18.9455 18.6666 16 18.6666C13.0545 18.6666 10.6666 16.2788 10.6666 13.3333Z" fill="black"/>
</svg>
