<svg width="32" height="32" viewBox="0 0 32 32" fill="none" xmlns="http://www.w3.org/2000/svg">
<path d="M28 15.9999C28 9.3725 22.6275 3.99992 16 3.99992C9.37262 3.99992 4.00004 9.3725 4.00004 15.9999C4.00004 22.6273 9.37262 27.9999 16 27.9999C22.6275 27.9999 28 22.6273 28 15.9999ZM19.0573 12.3905C19.578 11.8698 20.4221 11.8698 20.9427 12.3905C21.4634 12.9112 21.4634 13.7553 20.9427 14.276L15.6094 19.6093C15.0887 20.13 14.2447 20.13 13.724 19.6093L11.0573 16.9426L10.9655 16.8417C10.5383 16.318 10.5692 15.5454 11.0573 15.0572C11.5455 14.569 12.3181 14.5382 12.8418 14.9654L12.9427 15.0572L14.6667 16.7812L19.0573 12.3905ZM30.6667 15.9999C30.6667 24.1001 24.1002 30.6666 16 30.6666C7.89986 30.6666 1.33337 24.1001 1.33337 15.9999C1.33337 7.89974 7.89986 1.33325 16 1.33325C24.1002 1.33325 30.6667 7.89974 30.6667 15.9999Z" fill="black"/>
</svg>
