<svg width="32" height="32" viewBox="0 0 32 32" fill="none" xmlns="http://www.w3.org/2000/svg">
<path fill-rule="evenodd" clip-rule="evenodd" d="M22.0003 5.60162C19.6228 4.22985 16.8469 3.71459 14.1356 4.14176C11.4242 4.56893 8.94119 5.91272 7.10067 7.94902C5.26014 9.98533 4.17333 12.5911 4.02148 15.3317C3.86963 18.0723 4.66192 20.7822 6.26622 23.0093C7.87051 25.2365 10.1898 26.8464 12.8374 27.5705C15.485 28.2946 18.3008 28.0891 20.8153 26.9884C23.3298 25.8877 25.3909 23.9582 26.6549 21.5218C27.9189 19.0853 28.3095 16.2892 27.7615 13.5996C27.6145 12.8781 28.0802 12.1739 28.8018 12.0269C29.5233 11.8799 30.2274 12.3456 30.3745 13.0672C31.0443 16.3544 30.5669 19.7719 29.022 22.7498C27.477 25.7277 24.9579 28.0859 21.8847 29.4313C18.8115 30.7766 15.3699 31.0277 12.134 30.1427C8.89802 29.2577 6.06327 27.29 4.10246 24.5679C2.14165 21.8458 1.1733 18.5338 1.3589 15.1842C1.54449 11.8345 2.87281 8.64972 5.12235 6.16091C7.37188 3.67209 10.4066 2.02969 13.7206 1.50759C17.0345 0.985487 20.4272 1.61525 23.333 3.29185C23.9708 3.65987 24.1895 4.47527 23.8215 5.11309C23.4535 5.75091 22.6381 5.96963 22.0003 5.60162ZM30.2761 4.39059C30.7968 4.91129 30.7968 5.75551 30.2761 6.27621L16.9428 19.6095C16.4221 20.1302 15.5779 20.1302 15.0572 19.6095L11.0572 15.6095C10.5365 15.0888 10.5365 14.2446 11.0572 13.7239C11.5779 13.2032 12.4221 13.2032 12.9428 13.7239L16 16.7811L28.3905 4.39059C28.9112 3.86989 29.7554 3.86989 30.2761 4.39059Z" fill="black"/>
</svg>
