<svg width="32" height="32" viewBox="0 0 32 32" fill="none" xmlns="http://www.w3.org/2000/svg">
<path fill-rule="evenodd" clip-rule="evenodd" d="M9.33333 3.99992C9.33333 2.52716 10.5272 1.33325 12 1.33325H20C21.4728 1.33325 22.6667 2.52716 22.6667 3.99992H24C25.0609 3.99992 26.0783 4.42135 26.8284 5.17149C27.5786 5.92164 28 6.93905 28 7.99992V26.6666C28 27.7275 27.5786 28.7449 26.8284 29.495C26.0783 30.2452 25.0609 30.6666 24 30.6666H8C6.93913 30.6666 5.92172 30.2452 5.17157 29.495C4.42143 28.7449 4 27.7275 4 26.6666V7.99992C4 6.93905 4.42143 5.92164 5.17157 5.17149C5.92172 4.42135 6.93913 3.99992 8 3.99992H9.33333ZM9.33333 6.66659H8C7.64638 6.66659 7.30724 6.80706 7.05719 7.05711C6.80714 7.30716 6.66667 7.6463 6.66667 7.99992V26.6666C6.66667 27.0202 6.80714 27.3593 7.05719 27.6094C7.30724 27.8594 7.64638 27.9999 8 27.9999H24C24.3536 27.9999 24.6928 27.8594 24.9428 27.6094C25.1929 27.3593 25.3333 27.0202 25.3333 26.6666V7.99992C25.3333 7.6463 25.1929 7.30716 24.9428 7.05711C24.6928 6.80706 24.3536 6.66659 24 6.66659H22.6667C22.6667 8.13934 21.4728 9.33325 20 9.33325H12C10.5272 9.33325 9.33333 8.13934 9.33333 6.66659ZM20 6.66659H12V3.99992H20V6.66659ZM9.33333 14.6666C9.33333 13.9302 9.93029 13.3333 10.6667 13.3333H10.68C11.4164 13.3333 12.0133 13.9302 12.0133 14.6666C12.0133 15.403 11.4164 15.9999 10.68 15.9999H10.6667C9.93029 15.9999 9.33333 15.403 9.33333 14.6666ZM14.6667 14.6666C14.6667 13.9302 15.2636 13.3333 16 13.3333H21.3333C22.0697 13.3333 22.6667 13.9302 22.6667 14.6666C22.6667 15.403 22.0697 15.9999 21.3333 15.9999H16C15.2636 15.9999 14.6667 15.403 14.6667 14.6666ZM9.33333 21.3333C9.33333 20.5969 9.93029 19.9999 10.6667 19.9999H10.68C11.4164 19.9999 12.0133 20.5969 12.0133 21.3333C12.0133 22.0696 11.4164 22.6666 10.68 22.6666H10.6667C9.93029 22.6666 9.33333 22.0696 9.33333 21.3333ZM14.6667 21.3333C14.6667 20.5969 15.2636 19.9999 16 19.9999H21.3333C22.0697 19.9999 22.6667 20.5969 22.6667 21.3333C22.6667 22.0696 22.0697 22.6666 21.3333 22.6666H16C15.2636 22.6666 14.6667 22.0696 14.6667 21.3333Z" fill="black"/>
</svg>
