<svg width="32" height="32" viewBox="0 0 32 32" fill="none" xmlns="http://www.w3.org/2000/svg">
<path fill-rule="evenodd" clip-rule="evenodd" d="M16 3.99992C9.37262 3.99992 4.00004 9.3725 4.00004 15.9999C4.00004 22.6273 9.37262 27.9999 16 27.9999C22.6275 27.9999 28 22.6273 28 15.9999C28 9.3725 22.6275 3.99992 16 3.99992ZM1.33337 15.9999C1.33337 7.89974 7.89986 1.33325 16 1.33325C24.1002 1.33325 30.6667 7.89974 30.6667 15.9999C30.6667 24.1001 24.1002 30.6666 16 30.6666C7.89986 30.6666 1.33337 24.1001 1.33337 15.9999ZM16 6.66659C16.7364 6.66659 17.3334 7.26354 17.3334 7.99992V13.8425L20.7371 12.1407C21.3957 11.8114 22.1966 12.0783 22.5259 12.737C22.8553 13.3956 22.5883 14.1965 21.9297 14.5258L16.5963 17.1925C16.183 17.3991 15.6922 17.3771 15.2991 17.1341C14.906 16.8912 14.6667 16.462 14.6667 15.9999V7.99992C14.6667 7.26354 15.2637 6.66659 16 6.66659Z" fill="black"/>
</svg>
