<svg width="32" height="32" viewBox="0 0 32 32" fill="none" xmlns="http://www.w3.org/2000/svg">
<path fill-rule="evenodd" clip-rule="evenodd" d="M16 8.0009C13.4254 8.0009 10.9089 8.76534 8.76929 10.1973C6.64302 11.6204 4.98427 13.6391 4.00033 16.0001C4.98427 18.3611 6.64302 20.3797 8.76929 21.8028C10.9089 23.2348 13.4254 23.9993 16 23.9993C18.5745 23.9993 21.0911 23.2348 23.2307 21.8028C25.3569 20.3797 27.0157 18.3611 27.9996 16.0001C27.0157 13.6391 25.3569 11.6204 23.2307 10.1973C21.0911 8.76534 18.5745 8.0009 16 8.0009ZM7.28607 7.98121C9.86452 6.25549 12.8973 5.33423 16 5.33423C19.1026 5.33423 22.1354 6.25549 24.7139 7.98121C27.2923 9.70694 29.3003 12.1594 30.4833 15.0277C30.4893 15.0424 30.4951 15.0572 30.5006 15.0721C30.7229 15.6708 30.7229 16.3294 30.5006 16.9281C30.4951 16.943 30.4893 16.9577 30.4833 16.9724C29.3003 19.8407 27.2923 22.2932 24.7139 24.0189C22.1354 25.7447 19.1026 26.6659 16 26.6659C12.8973 26.6659 9.86452 25.7447 7.28607 24.0189C4.70762 22.2932 2.69964 19.8407 1.5167 16.9724C1.51064 16.9577 1.50485 16.943 1.49932 16.9281C1.27708 16.3294 1.27708 15.6708 1.49932 15.0721C1.50485 15.0572 1.51064 15.0424 1.5167 15.0277C2.69964 12.1594 4.70762 9.70694 7.28607 7.98121ZM16 13.3334C14.5272 13.3334 13.3333 14.5273 13.3333 16.0001C13.3333 17.4728 14.5272 18.6667 16 18.6667C17.4727 18.6667 18.6666 17.4728 18.6666 16.0001C18.6666 14.5273 17.4727 13.3334 16 13.3334ZM10.6666 16.0001C10.6666 13.0546 13.0545 10.6667 16 10.6667C18.9455 10.6667 21.3333 13.0546 21.3333 16.0001C21.3333 18.9456 18.9455 21.3334 16 21.3334C13.0545 21.3334 10.6666 18.9456 10.6666 16.0001Z" fill="black"/>
</svg>
