<svg width="32" height="32" viewBox="0 0 32 32" fill="none" xmlns="http://www.w3.org/2000/svg">
<path fill-rule="evenodd" clip-rule="evenodd" d="M6.66669 5.33341C6.31306 5.33341 5.97393 5.47389 5.72388 5.72394C5.47383 5.97399 5.33335 6.31313 5.33335 6.66675V25.3334C5.33335 25.687 5.47383 26.0262 5.72388 26.2762C5.97393 26.5263 6.31307 26.6667 6.66669 26.6667H12C12.7364 26.6667 13.3334 27.2637 13.3334 28.0001C13.3334 28.7365 12.7364 29.3334 12 29.3334H6.66669C5.60582 29.3334 4.5884 28.912 3.83826 28.1618C3.08811 27.4117 2.66669 26.3943 2.66669 25.3334V6.66675C2.66669 5.60588 3.08811 4.58847 3.83826 3.83832C4.58841 3.08818 5.60582 2.66675 6.66669 2.66675H12C12.7364 2.66675 13.3334 3.2637 13.3334 4.00008C13.3334 4.73646 12.7364 5.33341 12 5.33341H6.66669ZM20.3905 8.39061C20.9112 7.86991 21.7555 7.86991 22.2762 8.39061L28.9428 15.0573C29.4635 15.578 29.4635 16.4222 28.9428 16.9429L22.2762 23.6096C21.7555 24.1303 20.9112 24.1303 20.3905 23.6096C19.8698 23.0889 19.8698 22.2446 20.3905 21.7239L24.7811 17.3334H12C11.2636 17.3334 10.6667 16.7365 10.6667 16.0001C10.6667 15.2637 11.2636 14.6667 12 14.6667H24.7811L20.3905 10.2762C19.8698 9.75552 19.8698 8.9113 20.3905 8.39061Z" fill="black"/>
</svg>
