<svg width="32" height="32" viewBox="0 0 32 32" fill="none" xmlns="http://www.w3.org/2000/svg">
<path fill-rule="evenodd" clip-rule="evenodd" d="M12.4428 4.44273C12.1299 4.7556 12 5.10023 12 5.33325V6.66659H20V5.33325C20 5.10023 19.87 4.7556 19.5571 4.44273C19.2443 4.12986 18.8996 3.99992 18.6666 3.99992H13.3333C13.1003 3.99992 12.7556 4.12986 12.4428 4.44273ZM22.6666 6.66659V5.33325C22.6666 4.23294 22.1299 3.24424 21.4428 2.55711C20.7556 1.86998 19.7669 1.33325 18.6666 1.33325H13.3333C12.233 1.33325 11.2443 1.86998 10.5571 2.55711C9.87002 3.24424 9.33329 4.23294 9.33329 5.33325V6.66659H3.99996C3.26358 6.66659 2.66663 7.26354 2.66663 7.99992C2.66663 8.7363 3.26358 9.33325 3.99996 9.33325H5.33329V26.6666C5.33329 27.7669 5.87002 28.7556 6.55715 29.4427C7.24428 30.1299 8.23298 30.6666 9.33329 30.6666H22.6666C23.7669 30.6666 24.7556 30.1299 25.4428 29.4427C26.1299 28.7556 26.6666 27.7669 26.6666 26.6666V9.33325H28C28.7363 9.33325 29.3333 8.7363 29.3333 7.99992C29.3333 7.26354 28.7363 6.66659 28 6.66659H22.6666ZM7.99996 9.33325V26.6666C7.99996 26.8996 8.1299 27.2442 8.44277 27.5571C8.75564 27.87 9.10027 27.9999 9.33329 27.9999H22.6666C22.8996 27.9999 23.2443 27.87 23.5571 27.5571C23.87 27.2442 24 26.8996 24 26.6666V9.33325H7.99996Z" fill="black"/>
</svg>
