<svg width="32" height="32" viewBox="0 0 32 32" fill="none" xmlns="http://www.w3.org/2000/svg">
<path fill-rule="evenodd" clip-rule="evenodd" d="M15.0572 3.05727C15.5779 2.53657 16.4221 2.53657 16.9428 3.05727L23.6095 9.72394C24.1302 10.2446 24.1302 11.0889 23.6095 11.6096C23.0888 12.1303 22.2446 12.1303 21.7239 11.6096L17.3334 7.21903V20.0001C17.3334 20.7365 16.7364 21.3334 16 21.3334C15.2636 21.3334 14.6667 20.7365 14.6667 20.0001V7.21903L10.2762 11.6096C9.75546 12.1303 8.91124 12.1303 8.39054 11.6096C7.86985 11.0889 7.86985 10.2446 8.39054 9.72394L15.0572 3.05727ZM4.00002 18.6667C4.7364 18.6667 5.33335 19.2637 5.33335 20.0001V25.3334C5.33335 25.687 5.47383 26.0262 5.72388 26.2762C5.97393 26.5263 6.31307 26.6667 6.66669 26.6667H25.3334C25.687 26.6667 26.0261 26.5263 26.2762 26.2762C26.5262 26.0262 26.6667 25.687 26.6667 25.3334V20.0001C26.6667 19.2637 27.2636 18.6667 28 18.6667C28.7364 18.6667 29.3334 19.2637 29.3334 20.0001V25.3334C29.3334 26.3943 28.9119 27.4117 28.1618 28.1618C27.4116 28.912 26.3942 29.3334 25.3334 29.3334H6.66669C5.60582 29.3334 4.5884 28.912 3.83826 28.1618C3.08811 27.4117 2.66669 26.3943 2.66669 25.3334V20.0001C2.66669 19.2637 3.26364 18.6667 4.00002 18.6667Z" fill="black"/>
</svg>
