<svg width="32" height="32" viewBox="0 0 32 32" fill="none" xmlns="http://www.w3.org/2000/svg">
<path fill-rule="evenodd" clip-rule="evenodd" d="M12 5.33341C9.79084 5.33341 7.99998 7.12428 7.99998 9.33341C7.99998 11.5426 9.79084 13.3334 12 13.3334C14.2091 13.3334 16 11.5426 16 9.33341C16 7.12428 14.2091 5.33341 12 5.33341ZM5.33331 9.33341C5.33331 5.65152 8.31808 2.66675 12 2.66675C15.6819 2.66675 18.6666 5.65152 18.6666 9.33341C18.6666 13.0153 15.6819 16.0001 12 16.0001C8.31808 16.0001 5.33331 13.0153 5.33331 9.33341ZM20.0416 3.8427C20.2243 3.12933 20.9507 2.6991 21.664 2.88175C23.0981 3.24892 24.3691 4.08292 25.2768 5.25227C26.1844 6.42161 26.6771 7.8598 26.6771 9.34008C26.6771 10.8204 26.1844 12.2585 25.2768 13.4279C24.3691 14.5972 23.0981 15.4312 21.664 15.7984C20.9507 15.9811 20.2243 15.5508 20.0416 14.8375C19.859 14.1241 20.2892 13.3977 21.0026 13.2151C21.863 12.9948 22.6256 12.4944 23.1702 11.7928C23.7148 11.0912 24.0104 10.2283 24.0104 9.34008C24.0104 8.45191 23.7148 7.589 23.1702 6.88739C22.6256 6.18578 21.863 5.68538 21.0026 5.46508C20.2892 5.28243 19.859 4.55606 20.0416 3.8427ZM3.28593 20.6194C4.53618 19.3691 6.23187 18.6667 7.99998 18.6667H16C17.7681 18.6667 19.4638 19.3691 20.714 20.6194C21.9643 21.8696 22.6666 23.5653 22.6666 25.3334V28.0001C22.6666 28.7365 22.0697 29.3334 21.3333 29.3334C20.5969 29.3334 20 28.7365 20 28.0001V25.3334C20 24.2725 19.5786 23.2551 18.8284 22.505C18.0783 21.7548 17.0608 21.3334 16 21.3334H7.99998C6.93911 21.3334 5.9217 21.7548 5.17155 22.505C4.42141 23.2551 3.99998 24.2725 3.99998 25.3334V28.0001C3.99998 28.7365 3.40303 29.3334 2.66665 29.3334C1.93027 29.3334 1.33331 28.7365 1.33331 28.0001V25.3334C1.33331 23.5653 2.03569 21.8696 3.28593 20.6194ZM24.0423 19.8401C24.2264 19.1271 24.9536 18.6983 25.6666 18.8824C27.0969 19.2517 28.3639 20.0855 29.2689 21.2529C30.1739 22.4204 30.6655 23.8553 30.6666 25.3324V28.0001C30.6666 28.7365 30.0697 29.3334 29.3333 29.3334C28.5969 29.3334 28 28.7365 28 28.0001V25.3344C27.9993 24.4481 27.7043 23.5872 27.1613 22.8867C26.6184 22.1863 25.8581 21.686 25 21.4644C24.287 21.2803 23.8582 20.5531 24.0423 19.8401Z" fill="black"/>
</svg>
