<svg width="32" height="32" viewBox="0 0 32 32" fill="none" xmlns="http://www.w3.org/2000/svg">
<path fill-rule="evenodd" clip-rule="evenodd" d="M22.0771 4.0372C21.4331 3.96444 20.7784 3.98552 20.1335 4.10302C18.8002 4.34594 17.5727 4.9894 16.6144 5.94766C15.6562 6.90592 15.0127 8.13346 14.7698 9.4667C14.5269 10.7999 14.6961 12.1755 15.2548 13.4102C15.4836 13.9158 15.3752 14.5103 14.9828 14.9027L5.76949 24.116C5.4891 24.3964 5.33158 24.7767 5.33158 25.1732C5.33158 25.5697 5.4891 25.95 5.76949 26.2304C6.04987 26.5108 6.43015 26.6683 6.82668 26.6683C7.2232 26.6683 7.60348 26.5108 7.88387 26.2304L17.0972 17.0171C17.4896 16.6247 18.0841 16.5163 18.5897 16.7451C19.8244 17.3039 21.2 17.473 22.5332 17.2301C23.8664 16.9872 25.094 16.3437 26.0522 15.3855C27.0105 14.4272 27.654 13.1997 27.8969 11.8664C28.0144 11.2216 28.0355 10.5668 27.9627 9.92282L24.5428 13.3427L24.5333 13.3521C24.0349 13.8407 23.3647 14.1144 22.6667 14.1144C21.9687 14.1144 21.2985 13.8407 20.8 13.3521L20.7905 13.3427L18.6572 11.2094L18.6478 11.1999C18.1592 10.7014 17.8855 10.0312 17.8855 9.33323C17.8855 8.63522 18.1592 7.96503 18.6478 7.46656L18.6572 7.45708L22.0771 4.0372ZM19.6555 1.47954C21.522 1.13946 23.4479 1.37629 25.1764 2.15848C25.5751 2.33893 25.86 2.70361 25.9384 3.13422C26.0169 3.56484 25.879 4.00653 25.5695 4.31603L20.5523 9.33323L22.6667 11.4476L27.6839 6.43042C27.9934 6.12092 28.4351 5.98303 28.8657 6.06149C29.2963 6.13995 29.661 6.42476 29.8414 6.82353C30.6236 8.55204 30.8604 10.4779 30.5204 12.3444C30.1803 14.2109 29.2794 15.9295 27.9379 17.2711C26.5963 18.6126 24.8777 19.5135 23.0112 19.8536C21.4546 20.1372 19.8567 20.0196 18.3665 19.519L9.76949 28.116C8.98901 28.8965 7.93045 29.335 6.82668 29.335C5.72291 29.335 4.66435 28.8965 3.88387 28.116C3.10339 27.3356 2.66492 26.277 2.66492 25.1732C2.66492 24.0695 3.10339 23.0109 3.88387 22.2304L12.4809 13.6334C11.9803 12.1432 11.8627 10.5453 12.1463 8.9887C12.4864 7.12217 13.3873 5.40361 14.7288 4.06205C16.0704 2.72048 17.789 1.81963 19.6555 1.47954Z" fill="black"/>
</svg>
