<svg width="64" height="64" viewBox="0 0 64 64" fill="none" xmlns="http://www.w3.org/2000/svg">
<path d="M31.2797 17.3384C31.5193 17.3266 31.7595 17.3207 32 17.3207C32.2405 17.3207 32.4807 17.3266 32.7203 17.3384L33.4829 1.81423C32.9895 1.79 32.495 1.77783 32 1.77783C31.505 1.77783 31.0105 1.79 30.5171 1.81423L31.2797 17.3384Z" fill="url(#paint0_linear_3129_3167)"/>
<path d="M28.4332 17.7606C28.8993 17.6439 29.3708 17.5501 29.8461 17.4796L27.5655 2.10494C26.587 2.25009 25.6162 2.44319 24.6566 2.68355L28.4332 17.7606Z" fill="url(#paint1_linear_3129_3167)"/>
<path d="M34.1539 17.4796C34.6292 17.5501 35.1007 17.6439 35.5668 17.7606L39.3434 2.68355C38.3838 2.4432 37.4131 2.25009 36.4345 2.10494L34.1539 17.4796Z" fill="url(#paint2_linear_3129_3167)"/>
<path d="M26.3824 18.4381C26.6046 18.3461 26.8288 18.2596 27.0547 18.1788L21.8184 3.5445C21.3533 3.71093 20.8919 3.88892 20.4344 4.07836C19.9771 4.26781 19.5249 4.46827 19.0783 4.67948L25.7238 18.7301C25.9406 18.6275 26.1603 18.5301 26.3824 18.4381Z" fill="url(#paint3_linear_3129_3167)"/>
<path d="M36.9453 18.1788C37.1712 18.2596 37.3954 18.3461 37.6176 18.4381C37.8397 18.5301 38.0594 18.6275 38.2762 18.7301L44.9217 4.67949C44.4751 4.46827 44.0229 4.26781 43.5656 4.07836C43.1082 3.88892 42.6467 3.71093 42.1816 3.5445L36.9453 18.1788Z" fill="url(#paint4_linear_3129_3167)"/>
<path d="M23.2555 20.2095C23.6414 19.9233 24.0412 19.6562 24.4533 19.4091L16.4627 6.07759C15.6142 6.58615 14.7912 7.13606 13.9966 7.72533L23.2555 20.2095Z" fill="url(#paint5_linear_3129_3167)"/>
<path d="M39.5467 19.4091C39.9588 19.6562 40.3586 19.9233 40.7445 20.2095L50.0034 7.72534C49.2088 7.13607 48.3858 6.58616 47.5373 6.0776L39.5467 19.4091Z" fill="url(#paint6_linear_3129_3167)"/>
<path d="M21.6201 21.6202C21.7901 21.4502 21.9641 21.2845 22.1419 21.1234L11.704 9.60687C11.3379 9.93864 10.9797 10.2797 10.6297 10.6297C10.2796 10.9798 9.93858 11.338 9.60681 11.704L21.1233 22.142C21.2844 21.9642 21.4501 21.7902 21.6201 21.6202Z" fill="url(#paint7_linear_3129_3167)"/>
<path d="M41.8581 21.1234C42.0359 21.2845 42.2099 21.4502 42.3799 21.6202C42.5499 21.7902 42.7156 21.9642 42.8767 22.142L54.3932 11.704C54.0614 11.338 53.7204 10.9798 53.3703 10.6297C53.0203 10.2797 52.6621 9.93864 52.296 9.60687L41.8581 21.1234Z" fill="url(#paint8_linear_3129_3167)"/>
<path d="M19.4091 24.4534C19.6561 24.0413 19.9232 23.6415 20.2094 23.2556L7.72528 13.9967C7.13601 14.7913 6.58609 15.6142 6.07753 16.4627L19.4091 24.4534Z" fill="url(#paint9_linear_3129_3167)"/>
<path d="M43.7906 23.2556C44.0768 23.6415 44.3439 24.0413 44.5909 24.4534L57.9225 16.4627C57.4139 15.6142 56.864 14.7913 56.2747 13.9967L43.7906 23.2556Z" fill="url(#paint10_linear_3129_3167)"/>
<path d="M18.438 26.3825C18.5301 26.1603 18.6274 25.9407 18.73 25.7238L4.67943 19.0784C4.46821 19.525 4.26775 19.9771 4.0783 20.4345C3.88885 20.8918 3.71087 21.3534 3.54444 21.8185L18.1787 27.0548C18.2596 26.8288 18.346 26.6047 18.438 26.3825Z" fill="url(#paint11_linear_3129_3167)"/>
<path d="M45.27 25.7238C45.3726 25.9407 45.47 26.1603 45.562 26.3825C45.654 26.6047 45.7404 26.8288 45.8213 27.0548L60.4556 21.8185C60.2892 21.3534 60.1112 20.8919 59.9217 20.4346C59.7323 19.9771 59.5318 19.525 59.3206 19.0784L45.27 25.7238Z" fill="url(#paint12_linear_3129_3167)"/>
<path d="M17.4795 29.8462C17.55 29.3709 17.6438 28.8993 17.7606 28.4332L2.68349 24.6567C2.44313 25.6163 2.25003 26.587 2.10488 27.5655L17.4795 29.8462Z" fill="url(#paint13_linear_3129_3167)"/>
<path d="M46.2394 28.4332C46.3562 28.8993 46.45 29.3709 46.5205 29.8462L61.8951 27.5655C61.75 26.5871 61.5569 25.6163 61.3165 24.6567L46.2394 28.4332Z" fill="url(#paint14_linear_3129_3167)"/>
<path d="M17.3207 32.0001C17.3207 31.7596 17.3266 31.5194 17.3383 31.2798L1.81417 30.5172C1.78993 31.0106 1.77777 31.505 1.77777 32.0001C1.77777 35.9689 2.55949 39.8989 4.0783 43.5656C5.59711 47.2323 7.82327 50.564 10.6297 53.3704C13.436 56.1768 16.7677 58.4029 20.4344 59.9218C24.1012 61.4405 28.0312 62.2223 32 62.2223C35.9689 62.2223 39.8988 61.4405 43.5656 59.9218C47.2323 58.4029 50.564 56.1768 53.3703 53.3704C56.1767 50.564 58.4029 47.2323 59.9217 43.5656C61.4405 39.8989 62.2222 35.9689 62.2222 32.0001C62.2222 31.505 62.2101 31.0106 62.1858 30.5172L46.6617 31.2798C46.6734 31.5195 46.6793 31.7596 46.6793 32.0001C46.6793 33.9278 46.2997 35.8366 45.562 37.6176C44.8242 39.3986 43.743 41.0168 42.3799 42.3799C41.0168 43.7431 39.3985 44.8243 37.6176 45.5621C35.8365 46.2997 33.9277 46.6794 32 46.6794C30.0723 46.6794 28.1635 46.2997 26.3824 45.5621C24.6015 44.8243 22.9832 43.7431 21.6201 42.3799C20.257 41.0168 19.1758 39.3986 18.438 37.6176C17.7003 35.8366 17.3207 33.9278 17.3207 32.0001Z" fill="url(#paint15_linear_3129_3167)"/>
<path d="M32.0021 17.3201C31.7616 17.3201 31.5214 17.326 31.2818 17.3379L30.9922 11.4424C31.6618 11.1537 32.3482 10.8966 33.0498 10.6732L32.7224 17.3379C32.4827 17.326 32.2425 17.3201 32.0021 17.3201Z" fill="#5165E1"/>
<path d="M35.2514 10.0945L34.156 17.479C34.6313 17.5496 35.1028 17.6433 35.5688 17.7601L37.5789 9.7357C36.7902 9.81508 36.0137 9.93543 35.2514 10.0945Z" fill="#5165E1"/>
<path d="M40.0086 9.6228L36.9474 18.1782C37.1733 18.2591 37.3975 18.3455 37.6196 18.4375C37.8417 18.5296 38.0614 18.6269 38.2783 18.7296L42.5115 9.77922C41.69 9.6817 40.8549 9.62878 40.0086 9.6228Z" fill="#5165E1"/>
<path d="M45.0501 10.2303L39.5488 19.4086C39.9608 19.6556 40.3606 19.9227 40.7466 20.209L47.5804 10.9946C46.7586 10.6919 45.914 10.436 45.0501 10.2303Z" fill="#5165E1"/>
<path d="M50.0551 12.081L41.8601 21.1228C42.0379 21.2839 42.2119 21.4496 42.3819 21.6197C42.552 21.7897 42.7176 21.9637 42.8788 22.1415L52.425 13.4892C51.6671 12.9732 50.8758 12.5024 50.0551 12.081Z" fill="#5165E1"/>
<path d="M54.6407 15.2096L43.7926 23.255C44.0789 23.6409 44.346 24.0407 44.593 24.4528L56.6531 17.2242C56.0255 16.511 55.3532 15.838 54.6407 15.2096Z" fill="#5165E1"/>
<path d="M58.4153 19.507L45.272 25.7233C45.3747 25.9402 45.472 26.1598 45.564 26.382C45.6561 26.6041 45.7425 26.8283 45.8234 27.0542L59.883 22.0236C59.4476 21.1507 58.9568 20.3103 58.4153 19.507Z" fill="#5165E1"/>
<path d="M61.0175 24.7316L46.2415 28.4327C46.3582 28.8988 46.452 29.3703 46.5226 29.8456L61.7881 27.5812C61.593 26.607 61.3347 25.6556 61.0175 24.7316Z" fill="#5165E1"/>
<path d="M62.1759 30.5172L46.6637 31.2792C46.6755 31.5189 46.6814 31.759 46.6814 31.9995C46.6814 33.9272 46.3017 35.8361 45.564 37.6171C44.8263 39.3981 43.745 41.0163 42.3819 42.3794C41.0188 43.7425 39.4005 44.8238 37.6196 45.5615C35.8386 46.2992 33.9297 46.6789 32.002 46.6789C30.0743 46.6789 28.1654 46.2992 26.3845 45.5615C24.6035 44.8238 22.9852 43.7425 21.6221 42.3794C20.259 41.0163 19.1778 39.3981 18.4401 37.6171C18.1482 36.9125 17.9124 36.188 17.734 35.4502C19.3933 46.1705 28.6618 54.3769 39.8469 54.3769C52.2056 54.3769 62.2242 44.3582 62.2242 31.9995C62.2242 31.5015 62.208 31.0072 62.1759 30.5172Z" fill="#5165E1"/>
<path d="M17.7339 28.5492C17.7434 28.5103 17.7529 28.4715 17.7626 28.4327L17.7527 28.4302C17.7463 28.4698 17.7401 28.5095 17.7339 28.5492Z" fill="#5165E1"/>
<path d="M18.0301 27.0003L18.1808 27.0542C18.2616 26.8283 18.3481 26.6041 18.4401 26.382C18.5321 26.1598 18.6295 25.9402 18.7321 25.7233L18.4071 25.5696C18.2662 26.0402 18.1403 26.5172 18.0301 27.0003Z" fill="#5165E1"/>
<path d="M18.8888 24.1397L19.4111 24.4528C19.6582 24.0407 19.9253 23.6409 20.2115 23.255L19.4813 22.7135C19.268 23.1805 19.0703 23.6562 18.8888 24.1397Z" fill="#5165E1"/>
<path d="M20.1913 21.2948L21.1254 22.1415C21.2865 21.9637 21.4522 21.7897 21.6221 21.6196C21.7922 21.4496 21.9662 21.2839 22.144 21.1228L21.0263 19.8896C20.7315 20.3469 20.4529 20.8156 20.1913 21.2948Z" fill="#5165E1"/>
<path d="M21.9943 18.5057L23.2576 20.209C23.6435 19.9227 24.0432 19.6556 24.4554 19.4086L23.1035 17.1532C22.7167 17.5891 22.3466 18.0403 21.9943 18.5057Z" fill="#5165E1"/>
<path d="M24.3617 15.8454L25.7258 18.7296C25.9427 18.6269 26.1623 18.5296 26.3845 18.4375C26.6067 18.3455 26.8308 18.2591 27.0567 18.1782L25.7759 14.5988C25.2871 14.9946 24.8153 15.4106 24.3617 15.8454Z" fill="#5165E1"/>
<path d="M27.3514 13.4332L28.4352 17.7601C28.9013 17.6433 29.3729 17.5496 29.8482 17.479L29.0906 12.3722C28.4938 12.6999 27.9135 13.0541 27.3514 13.4332Z" fill="#5165E1"/>
<defs>
<linearGradient id="paint0_linear_3129_3167" x1="-6.98668" y1="-5.17329" x2="58.7467" y2="62.2223" gradientUnits="userSpaceOnUse">
<stop offset="0.0363151" stop-color="#3B53F1"/>
<stop offset="0.524591" stop-color="#6D80FD"/>
<stop offset="1" stop-color="#C9D0FE"/>
</linearGradient>
<linearGradient id="paint1_linear_3129_3167" x1="-6.98668" y1="-5.17329" x2="58.7467" y2="62.2223" gradientUnits="userSpaceOnUse">
<stop offset="0.0363151" stop-color="#3B53F1"/>
<stop offset="0.524591" stop-color="#6D80FD"/>
<stop offset="1" stop-color="#C9D0FE"/>
</linearGradient>
<linearGradient id="paint2_linear_3129_3167" x1="-6.98668" y1="-5.17329" x2="58.7467" y2="62.2223" gradientUnits="userSpaceOnUse">
<stop offset="0.0363151" stop-color="#3B53F1"/>
<stop offset="0.524591" stop-color="#6D80FD"/>
<stop offset="1" stop-color="#C9D0FE"/>
</linearGradient>
<linearGradient id="paint3_linear_3129_3167" x1="-6.98668" y1="-5.17329" x2="58.7467" y2="62.2223" gradientUnits="userSpaceOnUse">
<stop offset="0.0363151" stop-color="#3B53F1"/>
<stop offset="0.524591" stop-color="#6D80FD"/>
<stop offset="1" stop-color="#C9D0FE"/>
</linearGradient>
<linearGradient id="paint4_linear_3129_3167" x1="-6.98668" y1="-5.17329" x2="58.7467" y2="62.2223" gradientUnits="userSpaceOnUse">
<stop offset="0.0363151" stop-color="#3B53F1"/>
<stop offset="0.524591" stop-color="#6D80FD"/>
<stop offset="1" stop-color="#C9D0FE"/>
</linearGradient>
<linearGradient id="paint5_linear_3129_3167" x1="-6.98668" y1="-5.17329" x2="58.7467" y2="62.2223" gradientUnits="userSpaceOnUse">
<stop offset="0.0363151" stop-color="#3B53F1"/>
<stop offset="0.524591" stop-color="#6D80FD"/>
<stop offset="1" stop-color="#C9D0FE"/>
</linearGradient>
<linearGradient id="paint6_linear_3129_3167" x1="-6.98668" y1="-5.17329" x2="58.7467" y2="62.2223" gradientUnits="userSpaceOnUse">
<stop offset="0.0363151" stop-color="#3B53F1"/>
<stop offset="0.524591" stop-color="#6D80FD"/>
<stop offset="1" stop-color="#C9D0FE"/>
</linearGradient>
<linearGradient id="paint7_linear_3129_3167" x1="-6.98668" y1="-5.17329" x2="58.7467" y2="62.2223" gradientUnits="userSpaceOnUse">
<stop offset="0.0363151" stop-color="#3B53F1"/>
<stop offset="0.524591" stop-color="#6D80FD"/>
<stop offset="1" stop-color="#C9D0FE"/>
</linearGradient>
<linearGradient id="paint8_linear_3129_3167" x1="-6.98668" y1="-5.17329" x2="58.7467" y2="62.2223" gradientUnits="userSpaceOnUse">
<stop offset="0.0363151" stop-color="#3B53F1"/>
<stop offset="0.524591" stop-color="#6D80FD"/>
<stop offset="1" stop-color="#C9D0FE"/>
</linearGradient>
<linearGradient id="paint9_linear_3129_3167" x1="-6.98668" y1="-5.17329" x2="58.7467" y2="62.2223" gradientUnits="userSpaceOnUse">
<stop offset="0.0363151" stop-color="#3B53F1"/>
<stop offset="0.524591" stop-color="#6D80FD"/>
<stop offset="1" stop-color="#C9D0FE"/>
</linearGradient>
<linearGradient id="paint10_linear_3129_3167" x1="-6.98668" y1="-5.17329" x2="58.7467" y2="62.2223" gradientUnits="userSpaceOnUse">
<stop offset="0.0363151" stop-color="#3B53F1"/>
<stop offset="0.524591" stop-color="#6D80FD"/>
<stop offset="1" stop-color="#C9D0FE"/>
</linearGradient>
<linearGradient id="paint11_linear_3129_3167" x1="-6.98668" y1="-5.17329" x2="58.7467" y2="62.2223" gradientUnits="userSpaceOnUse">
<stop offset="0.0363151" stop-color="#3B53F1"/>
<stop offset="0.524591" stop-color="#6D80FD"/>
<stop offset="1" stop-color="#C9D0FE"/>
</linearGradient>
<linearGradient id="paint12_linear_3129_3167" x1="-6.98668" y1="-5.17329" x2="58.7467" y2="62.2223" gradientUnits="userSpaceOnUse">
<stop offset="0.0363151" stop-color="#3B53F1"/>
<stop offset="0.524591" stop-color="#6D80FD"/>
<stop offset="1" stop-color="#C9D0FE"/>
</linearGradient>
<linearGradient id="paint13_linear_3129_3167" x1="-6.98668" y1="-5.17329" x2="58.7467" y2="62.2223" gradientUnits="userSpaceOnUse">
<stop offset="0.0363151" stop-color="#3B53F1"/>
<stop offset="0.524591" stop-color="#6D80FD"/>
<stop offset="1" stop-color="#C9D0FE"/>
</linearGradient>
<linearGradient id="paint14_linear_3129_3167" x1="-6.98668" y1="-5.17329" x2="58.7467" y2="62.2223" gradientUnits="userSpaceOnUse">
<stop offset="0.0363151" stop-color="#3B53F1"/>
<stop offset="0.524591" stop-color="#6D80FD"/>
<stop offset="1" stop-color="#C9D0FE"/>
</linearGradient>
<linearGradient id="paint15_linear_3129_3167" x1="-6.98668" y1="-5.17329" x2="58.7467" y2="62.2223" gradientUnits="userSpaceOnUse">
<stop offset="0.0363151" stop-color="#3B53F1"/>
<stop offset="0.524591" stop-color="#6D80FD"/>
<stop offset="1" stop-color="#C9D0FE"/>
</linearGradient>
</defs>
</svg>
