<svg width="16" height="17" viewBox="0 0 16 17" fill="none" xmlns="http://www.w3.org/2000/svg">
<path fill-rule="evenodd" clip-rule="evenodd" d="M8.00008 2.49996C4.68637 2.49996 2.00008 5.18625 2.00008 8.49996C2.00008 11.8137 4.68637 14.5 8.00008 14.5C11.3138 14.5 14.0001 11.8137 14.0001 8.49996C14.0001 5.18625 11.3138 2.49996 8.00008 2.49996ZM0.666748 8.49996C0.666748 4.44987 3.94999 1.16663 8.00008 1.16663C12.0502 1.16663 15.3334 4.44987 15.3334 8.49996C15.3334 12.55 12.0502 15.8333 8.00008 15.8333C3.94999 15.8333 0.666748 12.55 0.666748 8.49996ZM8.00008 5.16663C8.36827 5.16663 8.66675 5.4651 8.66675 5.83329V8.49996C8.66675 8.86815 8.36827 9.16663 8.00008 9.16663C7.63189 9.16663 7.33342 8.86815 7.33342 8.49996V5.83329C7.33342 5.4651 7.63189 5.16663 8.00008 5.16663ZM7.33342 11.1666C7.33342 10.7984 7.63189 10.5 8.00008 10.5H8.00675C8.37494 10.5 8.67342 10.7984 8.67342 11.1666C8.67342 11.5348 8.37494 11.8333 8.00675 11.8333H8.00008C7.63189 11.8333 7.33342 11.5348 7.33342 11.1666Z" fill="#D03E3E"/>
</svg>
